<svg version="1.2" xmlns="http://www.w3.org/2000/svg">
  <defs>
    <svg id="linkedin" xmlns="http://www.w3.org/2000/svg" viewBox="0 0 36 36">
			<title>LinkedIn</title>
			<path d="M33.34,0H2.66A2.63,2.63,0,0,0,0,2.6H0V33.4A2.63,2.63,0,0,0,2.66,36H33.34A2.63,2.63,0,0,0,36,33.4h0V2.6A2.63,2.63,0,0,0,33.34,0ZM10.68,30.68H5.33V13.5h5.34ZM8,11.15A3.1,3.1,0,1,1,11.09,8h0a3.1,3.1,0,0,1-3,3.15ZM30.68,30.68H25.34V22.32c0-2,0-4.56-2.77-4.56s-3.2,2.17-3.2,4.41v8.5H14V13.5h5.12v2.35h.07a5.61,5.61,0,0,1,5-2.77c5.41,0,6.41,3.56,6.41,8.18Z" transform="translate(0 0)"/>
		</svg>
		<svg id="github" xmlns="http://www.w3.org/2000/svg" viewBox="0 0 29.9 29.22">
			<title>GitHub</title>
			<path d="M15.92.5a15,15,0,0,0-4.7,29.2c.8.1,1-.3,1-.7V26.4c-4.2.9-5.1-2-5.1-2a4.24,4.24,0,0,0-1.7-2.2c-1.4-.9.1-.9.1-.9a3.15,3.15,0,0,1,2.3,1.5c1.3,2.3.5,1.6,4.4,1.2a2.74,2.74,0,0,1,1-2c-3.3-.4-6.8-1.7-6.8-7.4a6,6,0,0,1,1.5-4,5.21,5.21,0,0,1,.1-4s1.3-.4,4.1,1.5a15.83,15.83,0,0,1,3.8-.5,15.83,15.83,0,0,1,3.8.5c2.9-1.9,4.1-1.5,4.1-1.5a5.21,5.21,0,0,1,.1,4,5.51,5.51,0,0,1,1.5,4c0,5.8-3.5,7-6.8,7.4a3.85,3.85,0,0,1,1,2.8v4.1a.72.72,0,0,0,1,.7A14.94,14.94,0,0,0,15.92.5Z" transform="translate(-0.92 -0.5)"/>
		</svg>
		<svg id="ionic" xmlns="http://www.w3.org/2000/svg" viewBox="0 0 416 416">
			<title>Ionic</title>
			<g>
				<path d="M593.5,174.4a34.81,34.81,0,0,0-48.9-48.9A207.48,207.48,0,0,0,424,87c-114.9,0-208,93.1-208,208s93.1,208,208,208,208-93.1,208-208A207.48,207.48,0,0,0,593.5,174.4ZM559.8,430.8a192.42,192.42,0,1,1-25.2-293,34.89,34.89,0,0,0,31.5,49.7,35.67,35.67,0,0,0,14.9-3.3,193.73,193.73,0,0,1,20,35.9,192,192,0,0,1-41.2,210.7Z" transform="translate(-216 -87)"/>
				<circle cx="208" cy="208" r="96.1"/>
			</g>
		</svg>
		<svg id="xda" xmlns="http://www.w3.org/2000/svg" viewBox="0 0 85.46 85.46">
			<title>XDA</title>
			<path d="M57,33c-.2.1-.4.3-.3.5v1.3a.47.47,0,0,0,.44.5H68.79a4.14,4.14,0,0,1,3,.9,4,4,0,0,1,1,2.9v.9H62.73a5.68,5.68,0,0,0-6,6.1v3.2A6,6,0,0,0,58,53h0a6.11,6.11,0,0,0,4.8,2h6.3a5.72,5.72,0,0,0,4.4-1.7,6.61,6.61,0,0,0,1.5-4.5v-9.5a6.19,6.19,0,0,0-1.8-4.8,7.37,7.37,0,0,0-5.2-1.6H57M85.49,43.7A42.73,42.73,0,1,1,42.73,1,42.73,42.73,0,0,1,85.49,43.7v0Zm-23-1.45H72.73v7a3.77,3.77,0,0,1-.9,2.8,3.51,3.51,0,0,1-2.7.9h-6.5a1.76,1.76,0,0,1-.6-.1,3.91,3.91,0,0,1-2.4-1.2,3.74,3.74,0,0,1-.8-2.5V46a4,4,0,0,1,.8-2.6,3.63,3.63,0,0,1,2.3-1.2h.6m-51.3-9.3a.45.45,0,0,0-.32.55l0,0c0,.1.1.1.1.2L19,44l-8.2,10.2a.49.49,0,0,0,.08.69h0a.37.37,0,0,0,.3.1h1.7a.52.52,0,0,0,.4-.2l7.1-9,7.1,9a.52.52,0,0,0,.4.2h1.7a.47.47,0,0,0,.5-.5.37.37,0,0,0-.1-.3l-8.1-10.3,7.9-10.3a.49.49,0,0,0-.08-.69h0a.37.37,0,0,0-.3-.1h-1.7a.52.52,0,0,0-.4.2l-6.9,9-7-9a.52.52,0,0,0-.4-.2h-1.6c-.1.1-.1.1-.2.1m39.9-5.8c-.2.1-.4.3-.3.5V34h-9.5a6.91,6.91,0,0,0-5,1.7,6.42,6.42,0,0,0-1.8,4.9v9c0,.2-.1.5-.1.8a6.06,6.06,0,0,0,1.1,3.5,4.72,4.72,0,0,0,2.9,2.1,10.68,10.68,0,0,0,2.9.3H46a7.81,7.81,0,0,0,5.3-1.6,6.19,6.19,0,0,0,1.8-4.8v-22a.47.47,0,0,0-.44-.5H51.33c-.1-.2-.2-.2-.2-.2m-10,9.1h9.6v13.3a3.84,3.84,0,0,1-1.1,2.9,5.28,5.28,0,0,1-3.2,1.3h-5.3a5.15,5.15,0,0,1-3.6-1,4.85,4.85,0,0,1-1-3.5v-8.7a4.24,4.24,0,0,1,1.9-3.8h0a8.09,8.09,0,0,1,2.7-.5" transform="translate(-0.03 -0.95)"/>
		</svg>
  </defs>
</svg>